<?xml version="1.0" standalone="no"?>
<!DOCTYPE svg PUBLIC "-//W3C//DTD SVG 20010904//EN"
 "http://www.w3.org/TR/2001/REC-SVG-20010904/DTD/svg10.dtd">
<svg version="1.0" xmlns="http://www.w3.org/2000/svg"
 width="779.000000pt" height="779.000000pt" viewBox="0 0 779.000000 779.000000"
 preserveAspectRatio="xMidYMid meet">
<metadata>
Created by potrace 1.14, written by Peter Selinger 2001-2017
</metadata>
<g transform="translate(0.000000,779.000000) scale(0.100000,-0.100000)"
fill="#000000" stroke="none">
<path d="M0 3895 l0 -3895 3895 0 3895 0 0 3895 0 3895 -3895 0 -3895 0 0
-3895z m3863 3764 c29 -7 42 -7 53 2 11 9 43 10 127 4 62 -5 184 -6 272 -4
172 4 222 4 527 -4 123 -3 198 -2 198 4 0 6 488 9 1333 7 l1332 -3 -1 -35 c0
-19 -1 -59 -2 -89 l-2 -53 -82 4 c-58 3 -96 11 -128 26 -126 61 -293 86 -425
63 -65 -11 -183 -48 -224 -70 -10 -6 -368 -11 -867 -14 -821 -3 -851 -4 -877
-23 -31 -22 -50 -76 -37 -108 20 -53 -13 -51 782 -56 l739 -5 -48 -77 c-27
-42 -53 -84 -59 -95 -11 -17 -43 -18 -620 -25 -544 -7 -1611 -7 -3269 0 -308
1 -565 5 -571 10 -6 4 -21 27 -34 52 -12 25 -38 66 -57 93 l-35 48 718 -1
c396 -1 835 2 976 6 l257 7 10 31 c6 19 7 46 2 68 -5 20 -7 39 -5 42 2 4 1 4
-3 1 -3 -3 -18 3 -32 12 -24 17 -93 18 -1086 18 -802 1 -1065 4 -1082 13 -12
6 -52 23 -90 36 -187 67 -374 59 -558 -25 -49 -22 -56 -23 -467 -24 l-418 -1
0 83 0 82 73 3 c198 10 3645 7 3680 -3z m-2390 -314 c168 -58 293 -193 343
-372 l17 -63 280 -2 281 -3 7 -25 c12 -42 496 -1482 707 -2105 110 -324 223
-650 251 -724 28 -74 51 -138 51 -143 0 -4 -65 -8 -145 -8 l-146 0 -30 68
c-17 37 -127 310 -246 607 -392 985 -590 1468 -619 1513 -8 12 -21 22 -29 22
-8 0 -21 -10 -29 -22 -8 -13 -118 -255 -244 -538 -126 -283 -282 -632 -347
-775 -64 -143 -169 -375 -232 -515 -63 -140 -125 -279 -138 -307 l-24 -53
-155 0 c-86 0 -156 2 -156 5 0 2 23 62 51 132 28 71 97 247 154 393 57 146
144 371 195 500 118 302 336 869 488 1270 l120 315 160 5 c170 5 180 8 208 61
22 43 17 68 -20 105 l-34 34 -1046 0 -1046 0 0 95 0 95 616 0 c403 0 622 4
635 10 24 13 49 61 49 95 0 16 -12 38 -29 56 l-29 29 -246 0 c-135 0 -246 3
-246 6 0 15 65 96 108 136 142 127 334 166 515 103z m5861 5 c33 -11 76 -30
95 -43 31 -19 54 -23 161 -27 l125 -5 0 -85 0 -85 -293 -5 -294 -5 -24 -28
c-34 -40 -33 -95 4 -130 l28 -27 289 -2 290 -3 3 -92 3 -93 -386 0 -386 0 -77
44 c-62 36 -225 111 -302 139 -8 3 4 6 26 6 40 1 42 3 49 38 11 58 57 152 109
220 135 178 376 254 580 183z m-6639 -90 c-19 -28 -46 -73 -61 -100 l-27 -50
-249 0 -248 0 0 100 0 100 309 0 310 0 -34 -50z m4344 -360 l186 0 -56 -24
c-83 -34 -202 -101 -302 -170 -49 -34 -104 -69 -124 -80 -57 -31 -294 -273
-381 -391 -90 -121 -191 -303 -262 -470 -26 -60 -52 -110 -57 -110 -9 0 -299
231 -414 329 -19 17 -46 40 -60 51 -13 11 -54 46 -91 77 -69 58 -115 76 -160
63 -24 -7 -103 -65 -148 -107 -14 -13 -66 -58 -117 -101 l-92 -77 -162 492
c-89 271 -164 499 -167 506 -3 10 192 12 1013 12 559 -1 1020 2 1024 6 3 3 46
4 95 0 49 -3 173 -6 275 -6z m1194 -139 c669 -136 1148 -612 1301 -1292 14
-63 28 -146 32 -186 l7 -71 -429 -5 c-439 -4 -506 -9 -698 -52 -168 -38 -423
-140 -571 -227 l-40 -24 -110 52 c-60 28 -146 65 -190 81 -83 32 -350 102
-467 123 -38 7 -68 13 -68 15 0 8 28 64 45 90 102 156 288 325 445 405 138 69
348 120 502 120 212 0 439 -70 605 -188 79 -57 156 -160 211 -283 17 -37 40
-74 53 -83 35 -24 83 -20 118 10 41 34 41 79 1 182 -130 337 -420 613 -744
706 -326 95 -684 29 -954 -174 -429 -323 -662 -946 -662 -1775 0 -689 137
-1211 419 -1595 120 -164 303 -326 456 -403 79 -39 217 -85 312 -103 128 -24
353 -15 485 19 115 30 246 90 331 151 145 103 275 266 349 438 75 174 81 244
24 279 -72 44 -130 13 -183 -100 -41 -90 -73 -115 -140 -109 -32 3 -37 7 -48
43 -36 120 -135 234 -242 276 -56 22 -72 23 -443 29 -361 5 -388 7 -437 27
-138 55 -245 186 -288 350 -16 60 -21 177 -7 155 5 -7 17 -12 28 -11 53 5 62
0 69 -40 11 -63 70 -177 122 -232 45 -48 109 -89 178 -112 17 -6 196 -13 415
-17 212 -3 394 -10 404 -15 13 -5 17 -5 13 2 -4 6 11 10 41 10 26 0 54 3 62 7
39 16 69 1 92 -43 40 -78 67 -85 310 -89 l207 -3 38 -79 38 -79 168 0 167 -1
0 -32 c0 -91 -52 -315 -112 -488 -99 -282 -293 -551 -499 -691 -145 -98 -372
-186 -604 -235 -151 -31 -400 -43 -555 -25 -316 37 -644 179 -905 391 -426
347 -708 953 -816 1750 -26 198 -37 695 -20 916 35 444 162 944 321 1269 148
302 353 540 620 717 218 145 464 232 750 268 116 14 379 4 493 -19z m-4593
-262 c0 -6 -9 -31 -19 -57 -35 -83 -88 -224 -135 -357 -59 -165 -115 -308
-125 -318 -9 -9 -93 60 -483 391 -27 22 -95 17 -137 -11 -20 -14 -76 -62 -126
-107 -49 -45 -114 -103 -144 -129 -44 -37 -259 -218 -354 -300 -18 -15 -19 -2
-16 439 2 250 6 457 10 460 15 11 1529 0 1529 -11z m6070 -177 c0 -104 3 -284
7 -400 3 -126 2 -212 -3 -212 -5 0 -24 42 -43 93 -95 260 -230 484 -395 655
l-50 52 242 0 242 0 0 -188z m-4267 -448 c51 -42 194 -162 318 -267 l227 -190
-19 -66 c-11 -36 -22 -78 -26 -94 l-6 -27 -25 25 c-37 37 -93 37 -132 -1 l-25
-24 -3 -254 -3 -254 -31 -6 c-52 -10 -116 -7 -120 7 -3 6 -6 152 -7 322 l-2
310 -27 28 c-36 38 -95 35 -126 -6 -20 -27 -21 -41 -22 -255 -1 -421 -1 -412
-26 -412 -20 0 -28 13 -56 93 -58 162 -295 862 -296 874 -1 10 299 272 312
273 2 0 45 -34 95 -76z m-2533 -14 c36 -29 133 -111 217 -183 l152 -129 -23
-61 c-13 -34 -43 -111 -67 -171 l-44 -109 -7 43 c-13 73 -64 112 -119 89 -51
-21 -59 -51 -59 -221 0 -84 -3 -211 -7 -281 l-6 -128 -76 3 -76 3 -5 257 c-5
254 -5 257 -29 282 -32 34 -56 40 -92 25 -50 -20 -59 -51 -60 -216 -1 -81 -4
-193 -8 -248 l-6 -100 -71 -1 -71 -2 -7 121 c-3 66 -6 182 -6 257 0 132 -1
138 -25 164 -26 28 -70 35 -106 16 -44 -24 -49 -55 -49 -309 l0 -241 -23 -5
c-13 -4 -48 -5 -78 -3 l-54 3 -2 305 -2 305 117 101 c64 56 200 173 302 260
102 87 209 179 239 206 47 41 57 46 70 34 9 -7 45 -37 81 -66z m1365 -380
c101 -259 273 -702 500 -1290 75 -195 150 -383 165 -417 l29 -63 429 0 429 0
6 -67 c4 -38 10 -87 13 -110 l7 -43 -126 0 c-98 0 -129 3 -140 15 -13 13 -146
15 -1019 15 -553 0 -1011 -2 -1019 -5 -26 -10 -314 -1 -312 10 1 6 30 71 63
145 34 74 82 182 107 240 25 58 64 148 88 200 240 531 559 1250 625 1405 23
55 49 113 57 129 l15 30 13 -25 c7 -13 39 -89 70 -169z m5433 -587 l3 -111
-518 -5 c-572 -4 -584 -6 -805 -78 -368 -120 -714 -396 -890 -710 l-43 -76
-105 -6 c-57 -3 -106 -4 -108 -2 -3 2 12 39 32 81 148 311 399 580 718 767
169 99 356 168 575 213 178 36 288 42 738 40 l400 -1 3 -112z m-2519 31 c189
-46 432 -138 431 -162 -1 -4 -35 -36 -76 -72 -70 -61 -239 -245 -275 -300
l-16 -25 -194 94 c-107 52 -195 95 -197 96 -6 5 30 243 50 329 l20 88 57 -6
c31 -4 121 -23 200 -42z m2513 -369 c13 -5 14 -59 9 -572 l-1 -83 -70 0 -69 0
-5 33 c-9 55 -25 188 -36 287 -6 52 -15 98 -19 103 -4 4 -77 6 -162 5 l-154
-3 -12 -80 c-7 -44 -21 -138 -31 -210 l-18 -130 -83 -3 c-46 -2 -88 1 -92 5
-5 5 -15 78 -24 163 -9 85 -19 178 -23 205 l-7 50 -284 3 c-157 1 -288 -1
-293 -6 -4 -4 -14 -62 -22 -127 -15 -118 -31 -229 -41 -272 l-5 -23 -275 0
c-151 0 -275 4 -275 8 0 46 195 249 352 368 193 145 467 250 713 274 90 8 906
13 927 5z m-7352 -41 c0 -3 -18 -74 -39 -158 -22 -83 -42 -174 -46 -201 -11
-81 -45 -239 -54 -248 -5 -5 -30 -7 -57 -5 l-49 3 -2 308 -3 307 125 0 c69 0
125 -3 125 -6z m530 1 c0 -8 -72 -180 -80 -190 -4 -5 -26 -62 -48 -125 -122
-347 -152 -376 -190 -184 -11 60 -30 156 -41 214 -11 58 -29 143 -40 190 -10
47 -17 88 -14 93 5 8 413 10 413 2z m2925 -4 c3 -5 2 -48 -1 -95 l-7 -86 -153
0 -153 0 -15 48 c-8 26 -21 64 -30 84 -9 21 -16 42 -16 48 0 13 366 14 375 1z
m1 -385 c14 -57 8 -61 -109 -66 l-107 -5 -15 38 c-9 21 -13 43 -10 48 4 5 58
9 120 9 113 0 115 0 121 -24z m1304 9 c0 -3 -18 -47 -41 -97 -22 -51 -44 -103
-49 -115 -9 -21 -16 -23 -85 -23 -52 0 -77 4 -79 13 -3 6 -7 60 -10 120 l-7
107 136 0 c74 0 135 -2 135 -5z m-4020 -437 c-1 -7 -20 -49 -43 -93 l-42 -80
-210 -3 c-172 -2 -211 -5 -218 -17 -7 -13 -45 -15 -237 -15 l-230 0 0 49 c0
26 -3 76 -6 110 l-7 61 497 0 c390 0 496 -3 496 -12z m6620 -103 l0 -115 -150
0 c-129 0 -150 2 -150 15 0 9 -11 27 -25 40 -18 19 -35 25 -70 25 -35 0 -52
-6 -70 -25 -14 -13 -25 -31 -25 -40 0 -13 -33 -15 -272 -15 -268 0 -272 0
-377 29 -58 16 -140 37 -181 46 -142 32 -354 97 -409 125 l-56 29 893 1 892 0
0 -115z m-2710 84 c0 -18 -2 -19 -15 -5 -8 8 -15 17 -15 20 0 3 7 6 15 6 9 0
15 -9 15 -21z m566 -34 l32 -24 -5 22 c-4 18 -3 19 6 7 6 -8 11 -10 11 -4 0 7
7 14 15 18 13 5 14 2 4 -17 -11 -20 -11 -21 5 -8 14 12 19 12 25 2 5 -7 12
-13 17 -13 5 -1 27 -16 49 -34 54 -45 183 -111 280 -146 l80 -28 -155 -1
c-285 -3 -325 4 -399 67 -57 49 -110 154 -78 154 8 0 19 6 25 13 18 21 54 18
88 -8z m-649 -37 c-3 -8 -6 -5 -6 6 -1 11 2 17 5 13 3 -3 4 -12 1 -19z m30
-58 c-3 -44 0 -83 4 -86 5 -3 9 -2 8 3 -1 4 0 17 1 28 2 17 3 17 11 -5 7 -20
8 -17 6 18 -1 23 1 42 5 42 5 0 9 15 9 33 2 29 2 29 6 5 3 -18 9 -25 19 -21
11 4 14 -6 15 -46 1 -28 3 -55 4 -61 1 -5 3 -27 4 -47 1 -22 5 -33 9 -26 5 8
30 -26 67 -93 33 -58 79 -127 103 -155 63 -71 156 -134 244 -163 76 -26 77
-26 425 -26 390 0 407 -2 482 -66 23 -20 52 -54 65 -77 27 -46 51 -157 42
-193 -6 -22 -12 -24 -70 -24 -47 0 -65 4 -70 15 -4 11 -16 13 -51 8 -40 -5
-45 -3 -45 13 0 11 -7 32 -15 48 -13 24 -13 31 -3 39 10 6 8 7 -4 4 -9 -3 -22
0 -28 7 -6 8 -33 24 -61 35 -48 21 -63 22 -479 23 -302 0 -435 4 -452 12 -12
6 -39 36 -60 66 -28 42 -36 62 -33 85 4 24 3 26 -4 10 -7 -17 -14 -8 -46 60
-32 68 -73 176 -79 210 -1 6 -10 36 -20 69 -9 32 -15 65 -12 73 3 8 2 12 -2 9
-5 -3 -16 36 -26 87 -10 51 -20 103 -22 115 -3 15 -1 21 6 17 5 -3 10 -21 11
-38 0 -18 4 -41 8 -52 7 -17 9 -16 15 10 5 18 3 31 -3 33 -6 2 -11 13 -11 25
0 18 2 19 10 7 7 -11 10 -7 10 18 0 17 2 32 5 32 3 0 4 -36 2 -80z m70 48 c-3
-7 -5 -2 -5 12 0 14 2 19 5 13 2 -7 2 -19 0 -25z m-40 -10 c-3 -8 -6 -5 -6 6
-1 11 2 17 5 13 3 -3 4 -12 1 -19z m-4515 -281 l27 -2 -19 -43 -20 -43 -172 4
-173 5 -3 32 c-6 56 -8 55 169 52 90 -1 176 -4 191 -5z m3097 -307 c68 -173
207 -522 308 -775 102 -253 187 -470 190 -483 l5 -22 -308 2 -308 3 -167 425
c-91 234 -185 470 -207 525 l-40 100 -788 0 -789 0 -61 -140 c-33 -77 -118
-270 -189 -430 -70 -159 -152 -348 -183 -419 l-56 -128 -35 6 c-132 24 -314
45 -420 50 -68 3 -126 7 -128 10 -3 3 33 92 80 198 47 106 106 240 130 298 24
58 88 203 141 323 53 120 94 222 91 227 -4 6 -48 10 -100 10 l-94 0 -80 -162
c-43 -90 -101 -212 -129 -273 -90 -200 -117 -259 -142 -310 l-25 -50 -66 5
-67 5 94 210 c52 116 113 247 134 292 22 46 40 86 40 89 0 6 94 215 245 544
29 63 60 132 68 153 l16 37 1357 -2 1358 -3 125 -315z m337 275 c3 -19 3 -38
-1 -44 -4 -7 -45 -11 -101 -11 l-95 0 -15 35 c-25 60 -25 60 96 57 l109 -3 7
-34z m-3598 -369 c3 -4 -4 -25 -16 -49 -42 -82 -74 -142 -87 -167 -11 -20 -20
-24 -47 -22 -18 2 -34 5 -34 5 -1 1 -5 58 -8 126 l-7 124 96 -6 c53 -3 100 -8
103 -11z m3692 -1 c4 -5 20 -53 35 -105 15 -52 29 -103 32 -112 5 -16 -2 -18
-61 -18 l-67 0 -20 48 c-10 26 -33 73 -49 104 -37 70 -38 86 -2 91 50 7 123 3
132 -8z m2094 -327 c-17 -59 -9 -58 -356 -58 l-319 0 -42 40 -42 39 383 1 383
0 -7 -22z m350 -13 c16 -42 -43 -164 -96 -199 -23 -15 -89 -38 -141 -50 l-28
-7 27 52 c14 28 45 72 68 98 23 25 53 63 65 84 21 34 26 37 62 35 21 -2 40 -7
43 -13z m1276 -150 c0 -63 -1 -65 -26 -65 -24 0 -26 3 -21 28 7 33 35 102 42
102 3 0 5 -29 5 -65z m-3523 -10 c12 -22 23 -43 23 -47 0 -5 -36 -8 -80 -8
-86 0 -92 4 -115 78 -7 23 -6 23 71 20 l78 -3 23 -40z m-1513 2 c32 -77 34
-72 -53 -89 -43 -9 -94 -23 -114 -33 -50 -24 -100 -75 -125 -129 l-22 -46 -70
0 c-70 0 -70 0 -70 28 0 44 43 124 90 166 52 47 140 89 240 115 102 27 107 26
124 -12z m-699 -378 c15 -105 79 -228 167 -318 l43 -44 -68 6 c-37 3 -86 12
-108 18 -92 28 -167 173 -157 303 3 35 8 68 11 72 3 5 28 10 55 12 l50 2 7
-51z m2422 19 c11 -13 26 -33 32 -45 11 -22 11 -22 -105 -25 -127 -3 -130 -2
-148 59 -7 21 -4 22 56 26 146 8 144 8 165 -15z m3311 -25 l3 -43 -110 0 c-63
0 -111 4 -111 9 0 6 10 26 21 46 l21 36 87 -3 86 -3 3 -42z m-4875 -70 c52
-113 59 -133 44 -133 -17 0 -127 57 -151 78 -10 10 -25 32 -33 50 -12 28 -12
37 -1 50 21 27 31 32 69 32 35 0 37 -2 72 -77z m-565 31 c70 15 92 16 92 5 0
-24 66 -104 123 -147 33 -26 88 -71 121 -100 87 -76 193 -128 338 -167 l67
-18 -15 -28 c-14 -28 -16 -29 -97 -29 -45 0 -102 5 -127 11 -25 6 -55 13 -66
14 -12 2 -33 11 -48 20 -14 10 -26 15 -26 11 0 -6 -45 18 -98 51 -37 24 -127
98 -185 152 -60 57 -117 165 -116 218 1 21 3 30 6 20 4 -14 11 -17 31 -13z
m-535 -168 c46 -112 160 -221 280 -269 47 -19 79 -21 332 -27 321 -6 309 -3
412 -101 56 -54 65 -59 105 -59 49 0 62 7 134 78 28 27 69 55 90 62 22 7 44
17 49 23 7 7 4 8 -10 3 -13 -5 -16 -4 -10 2 13 12 136 -4 183 -24 47 -19 66
-17 22 3 -21 9 -30 17 -22 20 8 3 19 0 25 -6 14 -14 40 -15 32 -1 -4 6 7 10
25 10 18 0 29 -4 25 -10 -4 -6 17 -10 54 -10 34 0 61 -4 61 -10 0 -5 18 -10
40 -10 22 0 40 4 40 9 0 4 48 11 108 14 59 4 125 9 147 11 34 5 36 4 10 -3
-21 -6 17 -9 120 -11 119 -2 139 -5 95 -11 -30 -4 -77 -11 -104 -15 -35 -5
-50 -3 -56 6 -6 10 -30 10 -121 0 -104 -11 -221 -10 -324 3 -22 3 -29 3 -15 0
l25 -6 -25 -8 c-14 -4 98 -7 249 -6 244 0 275 -2 286 -16 7 -10 21 -17 31 -17
10 0 25 -4 33 -9 11 -7 10 -11 -5 -21 -18 -10 -17 -11 4 -7 12 3 22 1 22 -4 0
-5 11 -7 24 -3 14 3 32 2 42 -4 26 -14 -109 -24 -186 -12 -67 9 -114 5 -104
-11 3 -5 105 -9 227 -9 128 0 216 4 208 9 -8 5 -9 11 -3 15 6 3 13 2 17 -4 14
-22 47 -8 107 46 92 82 105 87 242 92 80 3 114 8 105 14 -11 7 -9 8 4 4 10 -3
28 -6 40 -7 20 -1 20 -2 -3 -9 -38 -12 0 -11 44 1 27 8 41 8 49 0 8 -8 8 -11
0 -11 -6 0 -14 -8 -17 -17 -6 -16 -6 -16 12 0 10 9 25 17 32 17 9 0 7 5 -6 16
-19 15 -19 16 1 9 11 -4 28 -10 38 -12 9 -3 17 -10 17 -15 0 -5 -5 -6 -10 -3
-16 10 -61 -24 -58 -43 2 -11 -11 -24 -40 -39 -39 -19 -55 -21 -148 -17 -124
5 -152 -4 -215 -71 -79 -84 -47 -80 -557 -83 -283 -2 -473 1 -508 7 -51 10
-62 17 -118 75 -47 49 -70 66 -98 71 -52 10 -114 -22 -167 -85 -45 -54 -83
-70 -163 -70 -96 0 -142 17 -214 81 -80 70 -111 80 -242 78 -84 -1 -125 5
-302 46 -113 26 -233 58 -268 72 -101 41 -198 141 -233 241 -12 34 -8 41 41
75 36 25 43 22 63 -27z m2981 -128 c19 -17 18 -18 -30 -17 -27 1 -51 0 -54 0
-3 -1 -24 -4 -48 -6 -24 -2 -50 -9 -58 -16 -8 -6 -16 -10 -19 -8 -2 3 31 26
73 51 84 52 71 53 136 -4z m-3130 -185 c32 -35 56 -63 54 -63 -2 0 -56 22
-119 50 -62 27 -129 53 -146 56 -18 3 -33 10 -33 14 0 21 23 65 61 116 l41 56
41 -83 c25 -50 65 -108 101 -146z m3136 57 c0 -4 -14 -10 -31 -14 -45 -9 -61
-7 -54 4 4 6 10 8 15 5 5 -3 11 -2 13 2 7 11 57 13 57 3z m125 -10 c-19 -8
-19 -9 -1 -9 11 -1 17 -4 13 -7 -3 -3 -15 -3 -28 1 -17 6 -19 9 -8 16 8 5 21
8 29 8 10 0 8 -3 -5 -9z m-1823 -25 c-2 -14 -8 -22 -13 -19 -5 3 -5 14 1 25
14 26 18 24 12 -6z m451 -2 c-7 -2 -19 -2 -25 0 -7 3 -2 5 12 5 14 0 19 -2 13
-5z m605 0 c-16 -2 -40 -2 -55 0 -16 2 -3 4 27 4 30 0 43 -2 28 -4z m-3503
-24 c307 -27 670 -117 929 -231 222 -97 425 -235 590 -400 l99 -98 -19 -23
c-41 -47 -35 -46 -340 -47 -183 0 -303 4 -322 11 -17 6 -38 22 -48 36 -16 25
-16 27 2 40 15 12 59 14 222 11 129 -2 203 1 204 7 5 26 -269 187 -427 252
-179 73 -440 149 -577 168 -28 4 -48 11 -48 19 0 19 -53 96 -67 96 -7 0 -22
-19 -34 -42 -12 -24 -23 -45 -25 -47 -3 -3 -55 -3 -117 -1 -96 4 -193 3 -439
-4 l-48 -1 -5 133 -5 132 177 0 c98 0 232 -5 298 -11z m7135 -119 l0 -129
-114 3 c-63 2 -119 7 -125 10 -6 4 -14 5 -18 3 -5 -3 -82 -10 -173 -16 -91 -7
-178 -14 -195 -17 -28 -5 -32 -1 -59 50 -16 31 -34 56 -40 56 -6 0 -29 -29
-51 -65 -22 -36 -45 -65 -52 -65 -20 0 -325 -91 -393 -117 -113 -43 -163 -64
-234 -100 -70 -35 -247 -141 -256 -153 -3 -4 -15 -12 -27 -19 -51 -26 -23 -32
128 -27 83 2 162 1 174 -4 32 -12 22 -45 -19 -68 -26 -14 -68 -17 -280 -20
-137 -2 -260 -1 -272 2 -27 7 -74 68 -57 73 6 2 56 48 110 101 219 216 531
381 948 500 337 97 537 128 843 131 l162 1 0 -130z m-3551 106 c-2 -2 -22 -6
-44 -9 -27 -4 -35 -3 -25 3 14 9 79 15 69 6z m266 -24 c-3 -3 -11 0 -18 7 -9
10 -8 11 6 5 10 -3 15 -9 12 -12z m-66 -1 c7 -5 9 -11 5 -14 -5 -3 -15 1 -22
9 -14 16 -5 18 17 5z m40 -27 c-17 -21 -31 -17 -17 5 7 11 16 17 20 14 5 -2 4
-11 -3 -19z m-294 -14 c-3 -5 -10 -10 -16 -10 -5 0 -9 5 -9 10 0 6 7 10 16 10
8 0 12 -4 9 -10z m55 0 c0 -5 -4 -10 -9 -10 -6 0 -13 5 -16 10 -3 6 1 10 9 10
9 0 16 -4 16 -10z m198 -17 c-2 -9 -10 -18 -18 -20 -13 -4 -13 -3 0 6 14 10 7
16 -13 12 -5 -1 -6 3 -2 9 10 17 37 12 33 -7z m-1913 -23 c3 -5 2 -10 -4 -10
-5 0 -13 5 -16 10 -3 6 -2 10 4 10 5 0 13 -4 16 -10z m2274 -4 c10 -6 12 -5 7
2 -4 7 -3 12 3 12 5 0 13 -4 16 -10 3 -5 2 -10 -3 -10 -5 0 -29 -15 -53 -33
-24 -19 -50 -32 -57 -29 -7 2 -11 -1 -10 -8 2 -6 -8 -19 -22 -28 l-25 -16 19
22 c11 12 16 22 12 22 -15 0 20 26 52 39 17 7 32 17 32 22 0 5 -13 3 -29 -5
-18 -10 -38 -12 -56 -8 l-28 8 32 15 c34 17 87 19 110 5z m-1501 -14 c-4 -26
20 -52 48 -52 15 0 24 -6 24 -15 0 -8 4 -15 9 -15 6 0 9 9 8 20 -1 11 -6 20
-11 20 -5 0 -7 2 -4 5 12 13 38 -8 33 -26 -5 -13 -1 -19 10 -19 9 0 14 -4 11
-9 -4 -5 -78 -9 -165 -8 -175 2 -168 -2 -108 62 20 22 43 33 85 41 31 6 58 12
60 13 2 0 2 -7 0 -17z m1049 12 c-3 -3 -12 -4 -19 -1 -8 3 -5 6 6 6 11 1 17
-2 13 -5z m1063 -14 c22 -11 73 -32 113 -46 82 -30 96 -39 64 -42 -12 -1 -54
-10 -92 -20 -47 -12 -91 -17 -132 -14 -33 2 -76 -1 -94 -7 -51 -17 -97 -66
-110 -116 -8 -30 -16 -43 -28 -43 -18 2 -111 -53 -157 -92 -30 -26 -37 -27
-180 -33 -82 -3 -151 -3 -153 -1 -2 2 32 40 75 84 127 131 314 247 489 303 44
15 94 30 110 36 44 14 52 13 95 -9z m-2820 2 c0 -5 11 -14 25 -20 14 -6 25 -8
25 -3 0 5 -7 12 -16 15 -9 4 -14 9 -11 12 3 4 20 -4 37 -16 34 -24 51 -20 29
7 -13 17 -13 17 14 0 15 -10 27 -15 27 -12 0 3 9 -4 20 -15 11 -11 20 -24 20
-29 0 -5 5 -11 12 -13 7 -3 8 -10 3 -17 -6 -11 -10 -9 -19 5 -6 11 -11 22 -12
27 -1 4 -2 9 -3 12 0 3 -9 -3 -19 -12 -19 -19 -19 -38 0 -27 6 4 8 2 4 -4 -4
-6 -34 6 -81 35 -69 42 -90 63 -65 63 6 0 10 -4 10 -8z m756 -6 c8 -8 14 -19
14 -25 0 -19 -17 -12 -34 14 -18 27 -4 35 20 11z m1299 4 c3 -5 1 -10 -4 -10
-6 0 -11 5 -11 10 0 6 2 10 4 10 3 0 8 -4 11 -10z m-156 -303 c-19 -23 -38
-45 -43 -48 -4 -4 -20 -29 -35 -55 l-26 -49 -150 -5 -150 -5 -6 -90 c-3 -49
-9 -99 -14 -110 -5 -15 -1 -13 17 8 27 29 53 35 61 15 4 -10 7 -10 14 -1 17
24 215 34 588 31 273 -3 370 -7 373 -16 4 -14 52 -16 52 -3 0 5 -10 12 -22 14
-13 2 48 5 135 6 106 1 157 -2 157 -10 0 -6 -18 -10 -42 -9 -24 1 -52 1 -63 1
-18 -2 -18 -3 4 -15 17 -10 20 -15 10 -18 -8 -3 -11 -9 -7 -13 11 -12 91 -7
99 6 4 6 12 10 19 7 9 -3 8 -9 -5 -22 -15 -15 -16 -19 -4 -27 25 -15 67 -11
72 9 3 15 5 15 11 -3 24 -64 26 -67 51 -62 14 2 25 1 25 -4 0 -4 33 -36 73
-71 39 -35 74 -68 77 -73 3 -5 41 -22 85 -36 44 -14 127 -47 185 -73 58 -26
164 -72 235 -102 72 -30 139 -59 150 -64 13 -5 -46 -9 -161 -9 l-182 -1 -49
34 c-120 83 -190 106 -340 116 -98 6 -132 13 -178 34 -74 34 -128 77 -167 135
-42 62 -55 71 -105 71 -57 0 -62 -16 -27 -87 29 -56 42 -73 117 -151 43 -45
172 -114 237 -127 89 -18 56 -25 -105 -23 -157 3 -174 5 -215 27 -68 36 -150
126 -192 211 -21 41 -51 90 -67 108 l-30 32 -438 2 c-432 1 -1012 1 -1311 -1
-152 -1 -153 -1 -177 -27 -14 -15 -37 -52 -51 -83 -50 -106 -59 -123 -92 -162
-19 -22 -53 -53 -77 -69 -44 -30 -45 -30 -215 -36 -93 -3 -170 -1 -170 4 0 4
26 16 58 26 151 48 261 142 319 275 35 78 34 81 -43 74 -47 -5 -52 -8 -78 -49
-39 -62 -122 -131 -186 -155 -37 -14 -94 -24 -175 -29 -140 -10 -193 -27 -306
-101 l-76 -49 -188 2 -188 3 244 104 c134 57 282 118 329 134 47 17 86 34 88
38 8 19 162 140 172 134 6 -4 10 6 11 22 1 17 3 21 6 11 2 -10 9 -18 13 -18
11 0 35 45 44 83 4 15 11 25 15 22 17 -10 40 7 38 28 l-2 22 295 -1 c162 0
371 -1 464 -2 93 -2 171 0 174 3 3 3 8 33 10 67 7 89 9 88 -235 88 l-203 0
-23 48 c-12 26 -25 48 -29 50 -9 4 -78 98 -78 106 0 9 1624 12 1628 3 2 -4
-11 -26 -29 -50z m2606 -90 c14 -24 25 -47 25 -50 0 -4 -25 -7 -55 -7 -30 0
-55 3 -55 6 0 7 53 94 57 94 1 0 14 -20 28 -43z m-6208 -6 c20 -34 20 -40 7
-45 -25 -10 -84 -7 -84 4 0 12 43 80 50 80 3 0 15 -18 27 -39z m6683 -38 c0
-8 -12 -13 -30 -13 -34 0 -38 14 -13 42 16 18 18 18 30 2 7 -10 13 -24 13 -31z
m-7140 1 c0 -8 -10 -14 -25 -14 -27 0 -33 18 -13 38 14 14 38 -2 38 -24z
m6667 -177 c12 -16 23 -33 23 -38 0 -5 -29 -9 -65 -9 -36 0 -65 2 -65 5 0 3
15 27 33 54 27 41 33 47 41 33 5 -9 20 -30 33 -45z m-6205 3 l28 -50 -61 0
c-33 0 -59 3 -57 8 10 22 54 92 58 92 3 0 17 -23 32 -50z m6699 -32 c9 -16 4
-18 -41 -18 -27 0 -50 3 -50 6 0 4 10 22 22 42 l21 34 19 -23 c10 -13 23 -32
29 -41z m-7168 21 c10 -18 16 -34 13 -36 -2 -2 -22 -3 -45 -1 l-41 3 22 32
c13 18 25 33 28 33 3 0 13 -14 23 -31z m5069 -1 c-9 -9 -15 -9 -24 0 -9 9 -7
12 12 12 19 0 21 -3 12 -12z m52 -54 c3 -8 2 -12 -4 -9 -6 3 -10 10 -10 16 0
14 7 11 14 -7z m-4204 -71 c0 -7 -7 -13 -15 -13 -16 0 -19 9 -9 35 5 13 8 14
15 3 5 -7 9 -19 9 -25z m4240 18 c13 -25 13 -34 0 -26 -16 10 -32 45 -21 45 6
0 15 -9 21 -19z m1016 -18 c-3 -3 -13 -3 -22 1 -13 5 -14 9 -3 22 11 14 13 14
22 -1 5 -9 6 -19 3 -22z m-5708 -65 l14 -45 -43 -66 c-39 -59 -48 -67 -76 -67
-18 0 -33 3 -33 8 -1 18 106 221 115 218 5 -1 16 -23 23 -48z m6217 -60 c28
-56 52 -105 53 -110 2 -4 -12 -8 -31 -8 -38 0 -59 18 -76 69 -12 38 -15 151
-3 150 4 0 30 -46 57 -101z m480 12 c20 -41 41 -83 46 -92 5 -10 9 -20 9 -23
0 -3 -47 -5 -105 -5 -58 0 -105 4 -105 9 0 5 7 16 15 25 8 8 15 20 15 26 0 22
72 152 80 144 4 -5 25 -43 45 -84z m-7192 63 c-4 -11 -3 -14 5 -9 12 7 95
-151 86 -165 -3 -5 -50 -9 -105 -9 l-100 0 46 88 c45 83 63 112 71 112 2 0 0
-7 -3 -17z m950 -143 c4 -15 0 -20 -14 -20 -17 0 -18 3 -7 20 7 11 13 20 14
20 1 0 4 -9 7 -20z m5241 -5 c4 -10 -1 -15 -16 -15 -17 0 -18 2 -8 15 7 8 14
15 15 15 2 0 5 -7 9 -15z m-2979 -25 c15 -6 47 -30 72 -55 24 -25 47 -45 51
-45 3 0 -8 15 -26 33 -18 18 -32 37 -32 42 0 5 6 1 13 -10 13 -17 15 -17 45 1
18 10 32 22 32 26 0 4 18 8 41 8 34 0 42 -4 47 -22 l5 -22 8 22 c11 29 29 28
29 0 l0 -23 21 25 c11 14 17 18 13 10 -7 -13 -6 -13 11 0 15 13 79 15 402 18
l384 3 57 -26 c31 -14 70 -38 86 -53 31 -30 106 -136 106 -150 0 -6 -44 -9
-102 -7 -139 3 -229 15 -221 28 3 5 2 7 -4 4 -6 -4 -57 -7 -114 -8 -62 -1
-108 -7 -115 -13 -8 -9 -188 -11 -685 -8 -371 2 -675 5 -677 7 -8 8 92 137
124 161 66 51 117 63 266 64 75 0 149 -5 163 -10z m-3302 -148 c24 -2 27 -6
27 -37 l0 -35 -70 0 -70 0 0 38 0 37 43 -1 c23 0 54 -1 70 -2z m6727 -27 c0
-46 -15 -46 -16 0 0 19 3 35 8 35 4 0 8 -16 8 -35z m-6404 0 c8 -10 13 -24 11
-30 -2 -5 -40 -11 -85 -13 l-82 -3 0 35 0 35 71 -2 c57 -2 73 -6 85 -22z
m6384 5 c0 -5 -4 -10 -10 -10 -5 0 -10 5 -10 10 0 6 5 10 10 10 6 0 10 -4 10
-10z m-22 -18 c9 -6 6 -12 -13 -22 -29 -16 -43 -7 -25 15 14 17 20 18 38 7z
m-6008 -26 c0 -2 -7 -6 -15 -10 -8 -3 -15 -1 -15 4 0 6 7 10 15 10 8 0 15 -2
15 -4z"/>
<path d="M3938 7653 c12 -2 32 -2 45 0 12 2 2 4 -23 4 -25 0 -35 -2 -22 -4z"/>
<path d="M4048 7653 c6 -2 18 -2 25 0 6 3 1 5 -13 5 -14 0 -19 -2 -12 -5z"/>
<path d="M4518 7653 c23 -2 61 -2 85 0 23 2 4 4 -43 4 -47 0 -66 -2 -42 -4z"/>
<path d="M4258 7643 c12 -2 32 -2 45 0 12 2 2 4 -23 4 -25 0 -35 -2 -22 -4z"/>
<path d="M4898 7643 c12 -2 32 -2 45 0 12 2 2 4 -23 4 -25 0 -35 -2 -22 -4z"/>
<path d="M4080 7620 c0 -12 37 -12 65 0 15 7 10 9 -22 9 -24 1 -43 -3 -43 -9z"/>
<path d="M4880 7619 c0 -5 5 -7 10 -4 6 3 10 8 10 11 0 2 -4 4 -10 4 -5 0 -10
-5 -10 -11z"/>
<path d="M3865 7560 c-3 -5 1 -10 9 -10 9 0 16 5 16 10 0 6 -4 10 -9 10 -6 0
-13 -4 -16 -10z"/>
<path d="M4945 7560 c-3 -5 -1 -10 4 -10 6 0 11 5 11 10 0 6 -2 10 -4 10 -3 0
-8 -4 -11 -10z"/>
<path d="M4760 7538 c0 -4 17 -8 38 -8 20 -1 53 -7 72 -14 69 -26 74 -27 36
-6 -41 23 -146 43 -146 28z"/>
<path d="M4158 7533 c7 -3 16 -2 19 1 4 3 -2 6 -13 5 -11 0 -14 -3 -6 -6z"/>
<path d="M4275 7529 c51 -10 92 -10 50 1 -16 4 -43 8 -60 8 -25 0 -24 -2 10
-9z"/>
<path d="M4653 7530 c-13 -5 -23 -12 -23 -15 0 -4 5 -3 11 1 6 3 34 10 63 14
48 7 49 8 11 8 -22 0 -50 -3 -62 -8z"/>
<path d="M4034 7507 c-12 -6 -26 -19 -33 -28 -8 -14 -1 -12 26 7 54 36 57 46
7 21z"/>
<path d="M5458 7513 c12 -2 32 -2 45 0 12 2 2 4 -23 4 -25 0 -35 -2 -22 -4z"/>
<path d="M4545 7480 c-3 -5 -1 -10 4 -10 6 0 11 5 11 10 0 6 -2 10 -4 10 -3 0
-8 -4 -11 -10z"/>
<path d="M3965 7450 c-3 -5 -1 -10 4 -10 6 0 11 5 11 10 0 6 -2 10 -4 10 -3 0
-8 -4 -11 -10z"/>
<path d="M4465 7430 c22 -24 22 -24 22 -5 0 8 -4 12 -9 9 -4 -3 -8 0 -8 5 0 6
-5 11 -12 11 -6 0 -3 -9 7 -20z"/>
<path d="M3925 7398 l-16 -33 20 25 c20 24 26 40 16 40 -2 0 -12 -15 -20 -32z"/>
<path d="M3419 6431 c-17 -18 -29 -40 -29 -56 0 -16 12 -38 29 -56 26 -26 36
-29 92 -29 62 0 63 -1 103 -46 38 -42 45 -46 111 -55 71 -10 145 -4 180 14 11
5 41 29 67 53 44 41 49 43 95 38 84 -9 132 39 110 109 -12 38 -55 57 -125 57
-92 0 -117 -9 -177 -61 -74 -65 -101 -65 -161 -4 -55 58 -76 65 -180 65 -81 0
-87 -2 -115 -29z"/>
<path d="M5329 5349 c-38 -41 -38 -79 0 -121 l29 -33 360 0 c395 0 398 0 427
61 14 30 14 37 1 69 -9 21 -26 39 -41 45 -16 6 -172 10 -387 10 l-360 0 -29
-31z"/>
<path d="M6466 3196 c10 -8 21 -12 24 -10 5 6 -21 24 -34 24 -6 0 -1 -6 10
-14z"/>
<path d="M6602 3190 c0 -14 2 -19 5 -12 2 6 2 18 0 25 -3 6 -5 1 -5 -13z"/>
<path d="M6758 3083 c7 -3 16 -2 19 1 4 3 -2 6 -13 5 -11 0 -14 -3 -6 -6z"/>
<path d="M2123 4812 c-16 -10 -44 -68 -162 -334 -225 -506 -314 -714 -315
-738 l-1 -25 479 -3 c264 -1 484 2 488 6 5 5 -6 44 -25 88 -19 43 -100 239
-180 434 -80 195 -165 400 -189 454 -42 96 -71 133 -95 118z"/>
<path d="M4996 3513 c7 -39 11 -49 18 -42 7 8 -7 79 -16 79 -5 0 -6 -16 -2
-37z"/>
<path d="M4942 3415 c0 -16 2 -22 5 -12 2 9 2 23 0 30 -3 6 -5 -1 -5 -18z"/>
<path d="M5050 3363 c0 -4 5 -15 10 -23 8 -13 10 -13 10 2 0 9 -4 20 -10 23
-5 3 -10 3 -10 -2z"/>
<path d="M5203 2978 c1 -15 8 -24 19 -24 16 0 16 1 0 21 -9 11 -18 21 -18 23
-1 2 -1 -7 -1 -20z"/>
<path d="M5280 2905 c7 -9 15 -13 17 -11 7 7 -7 26 -19 26 -6 0 -6 -6 2 -15z"/>
<path d="M5324 2875 c11 -8 23 -15 28 -15 4 0 8 -7 8 -15 0 -10 10 -15 33 -15
23 0 28 -3 18 -9 -17 -11 65 -26 95 -18 11 3 -1 5 -25 6 -71 2 -40 12 38 12
102 0 96 15 -9 22 -51 4 -110 15 -140 27 -60 24 -72 25 -46 5z"/>
<path d="M6018 2833 c12 -2 32 -2 45 0 12 2 2 4 -23 4 -25 0 -35 -2 -22 -4z"/>
<path d="M6108 2833 c6 -2 18 -2 25 0 6 3 1 5 -13 5 -14 0 -19 -2 -12 -5z"/>
<path d="M6160 2830 c0 -5 5 -10 10 -10 6 0 10 5 10 10 0 6 -4 10 -10 10 -5 0
-10 -4 -10 -10z"/>
<path d="M6200 2820 c0 -6 11 -15 25 -20 14 -5 28 -17 31 -25 4 -8 11 -15 16
-15 14 0 -9 26 -44 51 -15 11 -28 15 -28 9z"/>
<path d="M6291 2742 c-1 -7 3 -20 8 -30 5 -9 14 -28 20 -42 10 -23 10 -22 5
10 -4 19 -10 37 -14 40 -4 3 -10 12 -13 20 -3 9 -6 10 -6 2z"/>
<path d="M3885 2800 c3 -5 8 -10 11 -10 2 0 4 5 4 10 0 6 -5 10 -11 10 -5 0
-7 -4 -4 -10z"/>
<path d="M3355 1480 c-3 -5 -2 -10 3 -10 5 0 26 -17 47 -39 36 -36 40 -37 64
-25 14 8 50 14 79 14 71 0 67 25 -4 26 -106 2 -114 4 -114 20 0 8 -5 12 -11 9
-7 -5 -4 -14 7 -26 9 -11 15 -22 12 -24 -3 -3 -16 7 -29 23 -31 36 -46 45 -54
32z"/>
<path d="M4008 1403 c7 -3 16 -2 19 1 4 3 -2 6 -13 5 -11 0 -14 -3 -6 -6z"/>
<path d="M3477 1373 c18 -14 229 -17 318 -4 l50 7 -64 7 c-95 11 -261 9 -261
-3 0 -5 -8 -10 -17 -10 -15 0 -15 2 -4 9 10 7 6 9 -13 8 -24 -2 -25 -3 -9 -14z"/>
<path d="M4640 1369 c0 -5 5 -7 10 -4 6 3 10 8 10 11 0 2 -4 4 -10 4 -5 0 -10
-5 -10 -11z"/>
<path d="M3160 1320 c0 -5 11 -10 25 -10 14 0 25 5 25 10 0 6 -11 10 -25 10
-14 0 -25 -4 -25 -10z"/>
<path d="M3198 1283 c7 -3 16 -2 19 1 4 3 -2 6 -13 5 -11 0 -14 -3 -6 -6z"/>
<path d="M2623 1320 c-23 -9 -32 -30 -14 -30 10 0 41 28 41 36 0 5 1 5 -27 -6z"/>
<path d="M3035 1004 c70 -8 175 -8 175 -1 0 4 -46 6 -102 5 -57 0 -89 -3 -73
-4z"/>
<path d="M3601 1006 c8 -8 78 -10 85 -3 4 4 -14 7 -41 7 -27 0 -46 -2 -44 -4z"/>
<path d="M4273 1003 c15 -2 37 -2 50 0 12 2 0 4 -28 4 -27 0 -38 -2 -22 -4z"/>
<path d="M3525 888 c-9 -31 -11 -179 -2 -185 6 -4 8 0 4 9 -4 13 7 17 66 22
88 9 191 6 209 -5 10 -7 10 -11 0 -21 -9 -9 -12 -9 -12 0 0 7 -4 12 -10 12 -5
0 -7 -7 -4 -15 19 -49 76 26 82 107 7 88 6 88 -175 88 -114 0 -155 -3 -158
-12z"/>
<path d="M2480 685 c0 -25 4 -45 9 -45 5 0 7 13 5 30 -4 24 -2 29 10 24 9 -3
13 -10 10 -15 -9 -15 20 -5 33 11 23 28 15 40 -27 40 l-40 0 0 -45z"/>
<path d="M3318 709 c-10 -10 -14 -19 -10 -19 5 0 17 9 27 20 10 11 14 20 9 19
-5 0 -17 -9 -26 -20z"/>
<path d="M5180 718 c0 -11 12 -10 30 2 12 7 10 9 -8 7 -12 0 -22 -5 -22 -9z"/>
<path d="M5005 700 l40 -7 -45 -3 -45 -2 54 -8 c53 -8 81 -5 81 9 0 8 -2 9
-75 15 -45 3 -46 3 -10 -4z"/>
<path d="M3496 683 c-6 -14 -5 -15 5 -6 7 7 10 15 7 18 -3 3 -9 -2 -12 -12z"/>
<path d="M3748 693 c6 -2 10 -9 6 -14 -3 -5 2 -9 12 -9 13 0 14 3 4 15 -7 8
-18 15 -24 14 -7 0 -6 -2 2 -6z"/>
<path d="M4400 685 c0 -8 9 -15 20 -15 24 0 27 15 4 24 -22 9 -24 8 -24 -9z"/>
<path d="M2550 688 c0 -3 7 -19 15 -34 8 -16 15 -22 15 -14 -1 8 -7 24 -15 34
-8 11 -15 17 -15 14z"/>
<path d="M4295 680 c-3 -5 1 -10 9 -10 9 0 16 5 16 10 0 6 -4 10 -9 10 -6 0
-13 -4 -16 -10z"/>
<path d="M2620 658 c0 -5 42 -7 93 -6 94 1 82 5 -31 10 -34 2 -62 0 -62 -4z"/>
<path d="M3600 660 c-19 -6 -12 -8 29 -9 30 -1 52 1 50 3 -11 9 -57 13 -79 6z"/>
<path d="M4017 658 c-6 -4 42 -7 108 -7 136 1 135 6 -3 12 -50 2 -98 0 -105
-5z"/>
<path d="M4778 663 c7 -3 16 -2 19 1 4 3 -2 6 -13 5 -11 0 -14 -3 -6 -6z"/>
<path d="M5277 659 c7 -7 15 -10 18 -7 3 3 -2 9 -12 12 -14 6 -15 5 -6 -5z"/>
<path d="M2938 653 c34 -2 90 -2 125 0 34 2 6 3 -63 3 -69 0 -97 -1 -62 -3z"/>
<path d="M3548 653 c7 -3 16 -2 19 1 4 3 -2 6 -13 5 -11 0 -14 -3 -6 -6z"/>
<path d="M3708 653 c7 -3 16 -2 19 1 4 3 -2 6 -13 5 -11 0 -14 -3 -6 -6z"/>
<path d="M4373 653 c37 -2 96 -2 130 0 34 2 4 3 -68 3 -71 0 -99 -1 -62 -3z"/>
<path d="M4608 653 c6 -2 18 -2 25 0 6 3 1 5 -13 5 -14 0 -19 -2 -12 -5z"/>
<path d="M4963 653 c48 -2 126 -2 175 0 48 1 8 3 -88 3 -96 0 -136 -2 -87 -3z"/>
<path d="M5240 656 c0 -2 7 -9 15 -16 9 -7 15 -8 15 -2 0 5 -7 12 -15 16 -8 3
-15 4 -15 2z"/>
<path d="M5288 633 c7 -3 16 -2 19 1 4 3 -2 6 -13 5 -11 0 -14 -3 -6 -6z"/>
<path d="M5442 610 c0 -14 2 -19 5 -12 2 6 2 18 0 25 -3 6 -5 1 -5 -13z"/>
<path d="M2280 549 c0 -5 5 -7 10 -4 6 3 10 8 10 11 0 2 -4 4 -10 4 -5 0 -10
-5 -10 -11z"/>
<path d="M2525 549 c-4 -6 -5 -12 -2 -15 2 -3 7 2 10 11 7 17 1 20 -8 4z"/>
<path d="M5300 546 c0 -2 8 -10 18 -17 15 -13 16 -12 3 4 -13 16 -21 21 -21
13z"/>
<path d="M2445 470 c-3 -5 -1 -10 4 -10 6 0 11 5 11 10 0 6 -2 10 -4 10 -3 0
-8 -4 -11 -10z"/>
<path d="M2180 446 c10 -13 40 -12 40 1 0 3 -7 3 -15 -1 -8 -3 -15 -1 -15 4 0
6 -5 10 -11 10 -8 0 -8 -4 1 -14z"/>
<path d="M2408 453 c7 -3 16 -2 19 1 4 3 -2 6 -13 5 -11 0 -14 -3 -6 -6z"/>
<path d="M5630 440 c8 -5 22 -9 30 -9 10 0 8 3 -5 9 -27 12 -43 12 -25 0z"/>
<path d="M5488 423 c6 -2 18 -2 25 0 6 3 1 5 -13 5 -14 0 -19 -2 -12 -5z"/>
<path d="M3642 324 c10 -10 20 -15 24 -12 3 4 -5 12 -18 18 -22 12 -22 12 -6
-6z"/>
<path d="M4232 297 c14 -7 36 -21 47 -31 12 -11 21 -15 22 -10 0 5 5 0 10 -11
l9 -20 -1 20 c-2 43 -1 44 69 43 66 -1 66 -1 25 -10 -24 -5 -43 -13 -43 -19 0
-12 13 -12 26 1 5 5 45 11 88 12 l79 2 -34 15 c-24 10 -78 16 -179 17 -118 2
-140 0 -118 -9z"/>
<path d="M4565 260 c-3 -6 -24 -10 -46 -10 -28 0 -39 -4 -39 -15 0 -22 76 -21
84 1 6 15 8 15 31 0 16 -11 23 -12 20 -3 -8 19 -43 38 -50 27z"/>
<path d="M4570 220 c0 -5 5 -10 11 -10 5 0 7 5 4 10 -3 6 -8 10 -11 10 -2 0
-4 -4 -4 -10z"/>
</g>
</svg>
